<?xml version="1.0" encoding="UTF-8"?>
<svg id="Layer_2" data-name="Layer 2" xmlns="http://www.w3.org/2000/svg" viewBox="0 0 138.69 108.66">
  <defs>
    <style>
      .cls-1 {
        fill: #e89830;
        fill-rule: evenodd;
      }

      .cls-2 {
        fill: #141515;
      }
    </style>
  </defs>
  <g id="Icons">
    <g>
      <path class="cls-1" d="m54.33,108.66c29.96,0,54.33-24.47,54.33-54.33S84.29,0,54.33,0,0,24.38,0,54.33s24.47,54.33,54.33,54.33h0Z"/>
      <g>
        <path class="cls-2" d="m130.17,21.15H62.24v-7.54c0-2.18-1.84-4.01-4.01-4.01h-27.61c-2.25,0-4.01,1.76-4.01,4.01v7.54h-3.23c-4.7,0-8.52,3.78-8.52,8.42v68.72c0,4.7,3.82,8.52,8.52,8.52h106.8c4.7,0,8.52-3.82,8.52-8.52V29.56c0-4.64-3.82-8.42-8.52-8.42ZM31.5,14.49h25.84v6.66h-25.84v-6.66Zm102.3,83.8c0,1.96-1.66,3.62-3.62,3.62H23.37c-1.96,0-3.62-1.66-3.62-3.62V29.56c0-1.94,1.62-3.52,3.62-3.52h106.8c2,0,3.62,1.58,3.62,3.52v68.72Z"/>
        <path class="cls-2" d="m58.62,33.97c-16.52,0-29.96,13.44-29.96,29.96s13.44,30.05,29.96,30.05,29.96-13.48,29.96-30.05-13.44-29.96-29.96-29.96Zm0,55.12c-13.82,0-25.06-11.29-25.06-25.16s11.24-25.06,25.06-25.06,25.06,11.24,25.06,25.06-11.24,25.16-25.06,25.16Z"/>
        <path class="cls-2" d="m124.3,32.6h-17.03c-3.4,0-6.17,2.81-6.17,6.27v1.96c0,3.4,2.77,6.17,6.17,6.17h17.03c3.4,0,6.17-2.77,6.17-6.17v-1.96c0-3.46-2.77-6.27-6.17-6.27Zm1.27,8.22c0,.7-.57,1.27-1.27,1.27h-17.03c-.7,0-1.27-.57-1.27-1.27v-1.96c0-.73.59-1.37,1.27-1.37h17.03c.68,0,1.27.64,1.27,1.37v1.96Z"/>
        <path class="cls-2" d="m58.62,44.64c-10.63,0-19.28,8.65-19.28,19.29s8.65,19.38,19.28,19.38,19.29-8.7,19.29-19.38-8.65-19.29-19.29-19.29Zm0,33.77c-7.93,0-14.39-6.5-14.39-14.49s6.46-14.39,14.39-14.39,14.39,6.46,14.39,14.39-6.46,14.49-14.39,14.49Z"/>
      </g>
    </g>
  </g>
</svg>