<?xml version="1.0" encoding="UTF-8"?>
<svg id="Layer_2" data-name="Layer 2" xmlns="http://www.w3.org/2000/svg" viewBox="0 0 172 117.87">
  <defs>
    <style>
      .cls-1 {
        fill: #e89830;
        fill-rule: evenodd;
      }

      .cls-2 {
        fill: #141515;
      }
    </style>
  </defs>
  <g id="Bckgrnd">
    <path class="cls-1" d="m112.12,117.87c29.86,0,54.33-24.38,54.33-54.33s-24.47-54.33-54.33-54.33-54.33,24.47-54.33,54.33,24.38,54.33,54.33,54.33h0Z"/>
  </g>
  <g id="Icons">
    <g>
      <path class="cls-2" d="m133.72,34.17c-6.71,0-12.94,2.09-18.08,5.64l-8.22-10.13,5.17-19.29h6.83c1.35,0,2.45-1.1,2.45-2.45s-1.1-2.45-2.45-2.45h-18.11c-1.35,0-2.45,1.1-2.45,2.45s1.1,2.45,2.45,2.45h6.21l-4.61,17.19-43.76-5.3,10-17.37h12.88c1.35,0,2.45-1.1,2.45-2.45s-1.1-2.45-2.45-2.45h-14.29c-.88,0-1.68.47-2.12,1.23l-20.58,35.77c-4.01-1.82-8.45-2.84-13.12-2.84C14.32,34.17,0,48.48,0,66.08s14.32,31.91,31.91,31.91,31.91-14.32,31.91-31.91c0-11.17-5.78-21.02-14.5-26.72l6.27-10.9,26.79,33.82c-.54,1.29-.84,2.71-.84,4.19,0,6.09,4.77,10.87,10.87,10.87,4.32,0,8.05-2.54,9.8-6.21,2.43,15.2,15.63,26.86,31.51,26.86,17.6,0,31.91-14.32,31.91-31.91s-14.32-31.91-31.91-31.91Zm-74.79,31.91c0,14.9-12.12,27.02-27.02,27.02s-27.02-12.12-27.02-27.02,12.12-27.02,27.02-27.02c3.79,0,7.4.79,10.67,2.2l-8.35,14.52c-.75-.17-1.52-.27-2.32-.27-5.83,0-10.57,4.74-10.57,10.57s4.74,10.47,10.57,10.47,10.47-4.7,10.47-10.47c0-3.26-1.47-6.17-3.77-8.11l8.27-14.37c7.26,4.85,12.05,13.11,12.05,22.48Zm-25.43-5.44c.15.16.32.3.52.41.31.18.64.26.97.3,1.5,1.02,2.5,2.76,2.5,4.73,0,3.08-2.5,5.58-5.58,5.58s-5.68-2.5-5.68-5.58,2.55-5.68,5.68-5.68c.55,0,1.08.08,1.59.24Zm68.14-28.3l-6.34,23.67c-.92-.25-1.88-.4-2.88-.4-2.67,0-5.12.98-7.02,2.58l-24.37-30.77,40.62,4.92Zm-9.23,40.1c-3.35,0-5.97-2.62-5.97-5.97s2.68-5.97,5.97-5.97c1.07,0,2.08.3,2.96.82.14.11.29.22.46.3,1.53,1.09,2.55,2.88,2.55,4.85,0,3.29-2.68,5.97-5.97,5.97Zm7.3-14l6.15-22.93,5.98,7.38c-5.15,4.86-8.68,11.4-9.71,18.75-.6-1.21-1.43-2.28-2.42-3.19Zm34.01,34.65c-14.9,0-27.02-12.12-27.02-27.02,0-7.6,3.16-14.47,8.22-19.38l10.47,12.91c-1.35,1.78-2.15,4.01-2.15,6.47,0,5.78,4.7,10.47,10.47,10.47s10.47-4.7,10.47-10.47-4.7-10.57-10.47-10.57c-1.63,0-3.16.37-4.53,1.02l-10.46-12.91c4.29-2.87,9.45-4.55,14.99-4.55,14.9,0,27.02,12.12,27.02,27.02s-12.12,27.02-27.02,27.02Zm0-32.7c3.08,0,5.58,2.55,5.58,5.68s-2.5,5.58-5.58,5.58-5.58-2.5-5.58-5.58,2.45-5.68,5.58-5.68Z"/>
      <path class="cls-2" d="m171.75,47.38c-7.14-14.61-21.72-23.69-38.03-23.69-7.73,0-15.31,2.08-21.91,6.02-1.16.69-1.54,2.2-.85,3.36.69,1.16,2.2,1.54,3.36.85,5.85-3.49,12.55-5.33,19.4-5.33,14.43,0,27.31,8.03,33.63,20.95.42.87,1.29,1.37,2.2,1.37.36,0,.73-.08,1.07-.25,1.21-.59,1.72-2.06,1.12-3.27Z"/>
      <path class="cls-2" d="m115.12,18.5c0,1.35,1.1,2.45,2.45,2.45h42.09c1.35,0,2.45-1.1,2.45-2.45s-1.1-2.45-2.45-2.45h-42.09c-1.35,0-2.45,1.1-2.45,2.45Z"/>
    </g>
  </g>
</svg>