<?xml version="1.0" encoding="UTF-8"?>
<svg id="Layer_2" data-name="Layer 2" xmlns="http://www.w3.org/2000/svg" viewBox="0 0 139.52 127.84">
  <defs>
    <style>
      .cls-1 {
        fill: #e89830;
        fill-rule: evenodd;
      }

      .cls-2 {
        fill: #141515;
      }
    </style>
  </defs>
  <g id="Icons">
    <g>
      <path class="cls-1" d="m54.33,127.84c29.86,0,54.23-24.38,54.23-54.23s-24.38-54.33-54.23-54.33S0,43.65,0,73.61s24.38,54.23,54.33,54.23h0Z"/>
      <g>
        <path class="cls-2" d="m138.58,1.1c-.6-.47-1.38-.63-2.12-.44l-39.4,10.31L57.85.08s-.06,0-.08-.01c-.09-.02-.19-.03-.28-.04-.09-.01-.18-.02-.27-.02-.09,0-.18.01-.27.02-.1,0-.19.02-.28.04-.03,0-.06,0-.08.01L16.54,10.55c-1.07.28-1.82,1.24-1.83,2.35l-.78,102.01c0,.76.34,1.48.94,1.95.43.34.96.52,1.5.52.21,0,.41-.03.62-.08l39.4-10.31,39.21,10.89s.05,0,.07,0c.19.05.39.08.59.08.19,0,.37-.03.55-.07.02,0,.05,0,.07,0l40.04-10.47c1.07-.28,1.82-1.24,1.83-2.35l.78-102.01c0-.76-.34-1.48-.94-1.95Zm-4.18,32.34l-35.18,15.67.26-33.7,35.13-9.19-.21,27.23Zm-40.09,17.19l-13.63,2.03c.18-.29.36-.59.55-.89,5.22-8.55,9.55-15.99,9.55-20.44,0-7.77-6.28-14.1-14-14.1s-14.1,6.32-14.1,14.1c0,4.42,4.32,11.8,9.54,20.28.47.76.91,1.47,1.3,2.12l-14.28,2.13.39-50.2,34.96,9.71-.27,35.26Zm-17.92-1.59c-3.08-5.01-8.81-14.32-8.81-17.72,0-5.07,4.13-9.2,9.2-9.2s9.1,4.13,9.1,9.2c0,3.44-5.74,12.84-8.83,17.89-.09.15-.19.31-.28.46-.13-.21-.25-.42-.39-.63ZM54.72,5.62l-.25,32.55-.15,19.1-35.19,16.26.45-58.71L54.72,5.62ZM19.1,78.93l35.19-16.26-.31,39.88-35.13,9.19.25-32.81Zm40.1-18.12l35.07-5.23-.44,56.72-34.96-9.71.32-41.78Zm39.53,51.52l.25-32.56.19-25.29,35.18-15.67-.49,64.33-35.13,9.19Z"/>
        <path class="cls-2" d="m83.14,31.22c0-3.51-2.85-6.36-6.36-6.36s-6.46,2.85-6.46,6.36,2.84,6.46,6.46,6.46,6.36-2.9,6.36-6.46Z"/>
      </g>
    </g>
  </g>
</svg>