<?xml version="1.0" encoding="UTF-8"?>
<svg id="Layer_2" data-name="Layer 2" xmlns="http://www.w3.org/2000/svg" viewBox="0 0 140.8 133.83">
  <defs>
    <style>
      .cls-1 {
        fill: #e89830;
        fill-rule: evenodd;
      }

      .cls-2 {
        fill: #141515;
      }
    </style>
  </defs>
  <g id="Bckgrnd">
    <path class="cls-1" d="m54.23,108.61c29.96,0,54.33-24.38,54.33-54.33S84.19.05,54.23.05,0,24.42,0,54.28s24.38,54.33,54.23,54.33h0Z"/>
  </g>
  <g id="Icons">
    <path class="cls-2" d="m78.59.05c-.25-.05-.5-.05-.75-.02-.36,0-.71-.03-1.06-.03-.43,0-.86.02-1.29.03-.29-.05-.6-.04-.89.02C40.3,1.21,12.75,29.45,12.75,64.02c0,1.35,1.1,2.45,2.45,2.45h.29c1.09,0,2.05-.72,2.35-1.77,1.61-5.59,6.76-9.49,12.53-9.49s10.9,3.89,12.42,9.45c.29,1.07,1.26,1.8,2.36,1.8h1.17c1.1,0,2.07-.74,2.36-1.8,1.52-5.57,6.63-9.45,12.42-9.45s11,3.89,12.52,9.45c.12.45.37.84.7,1.14v49.78c.17,5.99-3.8,11.32-9.63,12.93-6.88,1.8-14.02-2.34-15.91-9.23-.28-1.05-.41-2.22-.41-3.77,0-1.35-1.1-2.45-2.45-2.45s-2.45,1.1-2.45,2.45c0,2,.18,3.55.58,5.05,2.18,7.97,9.47,13.26,17.39,13.26,1.5,0,3.01-.19,4.52-.58,8.03-2.23,13.48-9.55,13.25-17.73v-50.34c.08-.15.15-.31.2-.47,1.61-5.59,6.76-9.49,12.53-9.49s10.9,3.89,12.42,9.45c.29,1.07,1.26,1.8,2.36,1.8h1.17c1.1,0,2.07-.74,2.36-1.8,1.52-5.57,6.63-9.45,12.42-9.45s11,3.89,12.52,9.45c.29,1.07,1.26,1.8,2.36,1.8h.78c1.35,0,2.45-1.1,2.45-2.45C140.8,29.33,113.05,1.01,78.59.05ZM30.37,50.32c-4.54,0-8.81,1.76-12.04,4.7,3.86-25.14,23.62-45.1,48.65-49.3-14.66,12.8-22.43,29.37-23.56,50.31-3.29-3.54-7.97-5.71-13.04-5.71Zm30.74,0c-4.93,0-9.5,2.05-12.77,5.42,1.3-21.14,9.85-37.47,25.98-49.68v50.07c-3.31-3.6-8.06-5.8-13.22-5.8Zm30.84,0c-4.88,0-9.43,2.03-12.73,5.36V6.28c16.08,12.28,24.55,28.62,25.73,49.71-3.29-3.52-7.95-5.67-13.01-5.67Zm30.74,0c-4.97,0-9.57,2.08-12.85,5.5-1.18-20.6-9.11-37.42-23.66-50.16,25.37,4.07,45.4,24.33,49.11,49.82-3.27-3.22-7.76-5.16-12.6-5.16Z"/>
  </g>
</svg>