<?xml version="1.0" encoding="UTF-8"?>
<svg id="Layer_2" data-name="Layer 2" xmlns="http://www.w3.org/2000/svg" viewBox="0 0 144.52 108.57">
  <defs>
    <style>
      .cls-1 {
        fill: #e89830;
        fill-rule: evenodd;
      }

      .cls-2 {
        fill: #141515;
      }
    </style>
  </defs>
  <g id="Bckgrnd">
    <path class="cls-1" d="m90.19,108.57c29.86,0,54.33-24.38,54.33-54.23S120.05,0,90.19,0s-54.33,24.38-54.33,54.33,24.38,54.23,54.33,54.23h0Z"/>
  </g>
  <g id="Icons">
    <g>
      <path class="cls-2" d="m21.58,79.27c-.46.07-.9.07-1.31,0-2.87-.48-5.03-3.99-4.81-7.82.08-1.35-.95-2.51-2.3-2.58-1.35-.09-2.51.95-2.58,2.3-.37,6.36,3.54,12.04,8.95,12.94.46.07.91.1,1.37.1s.92-.03,1.37-.1c1.34-.19,2.27-1.43,2.08-2.77-.19-1.34-1.42-2.27-2.77-2.08Z"/>
      <path class="cls-2" d="m125.69,46.55c-1.35,0-2.45,1.1-2.45,2.45v.43c-3.88-5.34-9.98-6.31-15.56-6.31h-20.37c-.1-1.26-1.15-2.25-2.44-2.25h-41.6c-1.29,0-2.34.99-2.44,2.25h-20.27c-5.63,0-11.76.97-15.66,6.33v-.46c0-1.35-1.1-2.45-2.45-2.45s-2.45,1.1-2.45,2.45v8.81c0,.9.49,1.69,1.21,2.11-.22,1.73-.33,3.63-.33,5.72,0,8.95,2.8,16.5,7.87,21.25,4.29,4.02,9.99,6.04,16.98,6.04.81,0,1.64-.03,2.49-.08,19.39-.8,28.59-18.64,29.22-31.62h13.25c.64,12.98,9.83,30.82,29.22,31.62,8.17.52,14.72-1.48,19.5-5.95,5.13-4.81,7.84-12.16,7.84-21.26,0-2.09-.12-3.99-.33-5.72.72-.42,1.21-1.21,1.21-2.11v-8.81c0-1.35-1.1-2.45-2.45-2.45ZM28,87.96s-.04,0-.06,0c-6.75.44-12.07-1.12-15.83-4.65-4.08-3.82-6.32-10.1-6.32-17.68,0-16.27,6.99-17.62,14.78-17.62h24.28c6.98,0,7.7,8.67,7.75,11.33.22,11.13-7.43,27.92-24.59,28.61Zm42.88-31.62h-13.6c-.59-4.64-2.38-8.29-5.05-10.57h23.7c-2.67,2.28-4.46,5.93-5.05,10.57Zm45.2,26.99c-3.76,3.52-9.11,5.07-15.87,4.64-.02,0-.04,0-.06,0-17.15-.69-24.81-17.48-24.59-28.61.05-2.66.77-11.33,7.75-11.33h24.37c7.74,0,14.68,1.35,14.68,17.62,0,7.6-2.24,13.88-6.29,17.69Z"/>
    </g>
  </g>
</svg>