<?xml version="1.0" encoding="UTF-8"?>
<svg id="Layer_2" data-name="Layer 2" xmlns="http://www.w3.org/2000/svg" viewBox="0 0 147.43 125.79">
  <defs>
    <style>
      .cls-1 {
        fill: #e89830;
        fill-rule: evenodd;
      }

      .cls-2 {
        fill: #141515;
      }
    </style>
  </defs>
  <g id="Icons">
    <g>
      <path class="cls-1" d="m93.1,113.36c29.96,0,54.33-24.38,54.33-54.33S123.05,4.7,93.1,4.7s-54.23,24.47-54.23,54.33,24.38,54.33,54.23,54.33h0Z"/>
      <path class="cls-2" d="m121.48,18.11h-35.05V3.82c0-2.14-1.68-3.82-3.82-3.82h-37.1c-2.14,0-3.82,1.68-3.82,3.82v14.29H6.66c-3.67,0-6.66,2.99-6.66,6.66v82.04c0,3.67,2.99,6.66,6.66,6.66h6.61c-.03.35-.05.71-.05,1.08,0,6.21,5.05,11.26,11.26,11.26s11.26-5.05,11.26-11.26c0-.36-.02-.72-.06-1.08h56.8c-.04.36-.06.72-.06,1.08,0,6.21,5.05,11.26,11.26,11.26s11.26-5.05,11.26-11.26c0-.37-.02-.73-.05-1.08h6.61c3.67,0,6.66-2.99,6.66-6.66V24.77c0-3.67-2.99-6.66-6.66-6.66ZM46.6,4.89h34.95v13.22h-4.5v-5.87c0-1.73-1.45-3.13-3.23-3.13h-19.48c-1.78,0-3.23,1.41-3.23,3.13v5.87h-4.5V4.89Zm25.55,13.22h-16.15v-4.11h16.15v4.11Zm-21.05,4.89h42.39v85.56h-58.83V23.01h16.45ZM4.89,106.8V24.77c0-1,.76-1.76,1.76-1.76h23.1v85.56H6.66c-.96,0-1.76-.81-1.76-1.76Zm25.94,7.73c0,3.51-2.85,6.36-6.36,6.36s-6.36-2.79-6.36-6.36c0-.38.02-.74.07-1.08h12.56c.07.36.1.71.1,1.08Zm79.2,0c0,3.57-2.79,6.36-6.36,6.36s-6.36-2.85-6.36-6.36c0-.36.03-.72.1-1.08h12.56c.05.33.07.69.07,1.08Zm13.21-7.73c0,.96-.81,1.76-1.76,1.76h-23.1V23.01h23.1c1,0,1.76.76,1.76,1.76v82.04Z"/>
    </g>
  </g>
</svg>