<?xml version="1.0" encoding="UTF-8"?>
<svg id="Layer_2" data-name="Layer 2" xmlns="http://www.w3.org/2000/svg" viewBox="0 0 159.96 153.3">
  <defs>
    <style>
      .cls-1 {
        fill: #e89830;
        fill-rule: evenodd;
      }

      .cls-2 {
        fill: #141515;
      }
    </style>
  </defs>
  <g id="Bckgrnd">
    <path class="cls-1" d="m105.63,145.57c29.86,0,54.33-24.38,54.33-54.33s-24.47-54.23-54.33-54.23-54.33,24.38-54.33,54.23,24.38,54.33,54.33,54.33h0Z"/>
  </g>
  <g id="Icons">
    <g>
      <path class="cls-2" d="m76.55,33.97c-23.54,0-42.68,19.19-42.68,42.78s19.15,42.78,42.68,42.78,42.78-19.19,42.78-42.78-19.19-42.78-42.78-42.78Zm0,80.67c-20.84,0-37.79-17-37.79-37.89s16.95-37.89,37.79-37.89,37.88,17,37.88,37.89-17,37.89-37.88,37.89Z"/>
      <path class="cls-2" d="m68.82,27.12h15.58c1.35,0,2.45-1.1,2.45-2.45,0-.4-.09-.77-.26-1.1l-7.73-21.93c-.34-.98-1.27-1.64-2.31-1.64h0c-1.04,0-1.97.67-2.31,1.65l-3.81,11.14-3.92,11.06c-.26.75-.15,1.58.31,2.23.46.65,1.2,1.04,2,1.04Zm6.23-12.72l1.53-4.48,4.34,12.3h-8.64l2.77-7.82Z"/>
      <path class="cls-2" d="m84.38,126.29h-15.56c-.79,0-1.54.39-2,1.03-.46.65-.57,1.48-.31,2.23l3.91,11.04,3.82,11.06c.34.98,1.26,1.64,2.3,1.65h0c1.04,0,1.96-.65,2.31-1.63l7.83-22.12c.27-.75.15-1.58-.31-2.23-.46-.65-1.2-1.04-2-1.04Zm-7.8,17.15l-4.3-12.26h8.64l-4.34,12.26Z"/>
      <path class="cls-2" d="m94.63,29.93l6.73,3.8,6.75,3.92c.38.22.8.33,1.23.33.35,0,.7-.07,1.02-.22.72-.33,1.24-.99,1.38-1.78l4.31-23.1c.19-1.02-.28-2.05-1.18-2.57-.9-.52-2.03-.41-2.82.26l-8.92,7.65-8.91,7.73c-.6.52-.91,1.3-.83,2.09.08.79.54,1.49,1.23,1.89Zm11.71-8.01l3.64-3.12-2.4,12.87-7.52-4.3,6.28-5.45Z"/>
      <path class="cls-2" d="m58.59,123.48l-6.78-3.93-6.75-3.82c-.69-.39-1.52-.42-2.24-.09-.72.33-1.23.99-1.37,1.77l-2.15,11.53-2.25,11.55c-.2,1.02.27,2.06,1.17,2.58.38.22.81.33,1.23.33.57,0,1.14-.2,1.59-.59l17.91-15.37c.6-.52.92-1.29.84-2.08-.07-.79-.52-1.5-1.21-1.89Zm-15.39,11.04l2.43-12.84,7.52,4.3-9.95,8.54Z"/>
      <path class="cls-2" d="m115.55,42.92c-.33.72-.3,1.55.09,2.24l3.83,6.78,3.92,6.75c.4.69,1.1,1.14,1.89,1.21.07,0,.15,0,.22,0,.71,0,1.39-.31,1.86-.85l15.37-17.91c.68-.79.78-1.92.26-2.83-.52-.9-1.56-1.37-2.58-1.17l-11.53,2.25-11.55,2.15c-.78.15-1.44.66-1.77,1.37Zm14.24,1.28l4.64-.9-8.54,9.95-4.3-7.52,8.2-1.53Z"/>
      <path class="cls-2" d="m37.66,110.47c.33-.72.29-1.56-.11-2.25l-3.9-6.73-3.82-6.75c-.39-.69-1.09-1.15-1.89-1.23-.8-.07-1.57.23-2.09.83l-7.74,8.92-7.64,8.91c-.67.79-.78,1.92-.26,2.82.44.77,1.26,1.22,2.12,1.22.15,0,.3-.01.45-.04l23.1-4.31c.78-.15,1.44-.66,1.78-1.38Zm-18.95-.39l8.57-9.92,4.3,7.52-12.87,2.4Z"/>
      <path class="cls-2" d="m151.55,74.34l-11.04-3.81-11.06-3.92c-.75-.27-1.58-.15-2.23.31-.65.46-1.04,1.2-1.04,2v15.57c0,.79.39,1.54,1.04,2,.42.3.91.45,1.41.45.27,0,.55-.05.82-.14l22.12-7.83c.98-.35,1.63-1.28,1.63-2.32s-.67-1.96-1.65-2.3Zm-20.47,6.68v-8.64l7.82,2.77,4.44,1.53-12.26,4.34Z"/>
      <path class="cls-2" d="m24.57,86.93c.5,0,.99-.15,1.41-.45.65-.46,1.04-1.2,1.04-2v-15.57c0-.8-.39-1.54-1.04-2-.65-.46-1.48-.58-2.23-.31l-11.04,3.91-11.06,3.82C.67,74.68,0,75.6,0,76.64c0,1.04.65,1.97,1.63,2.32l22.12,7.83c.27.09.54.14.82.14Zm-2.45-5.91l-12.26-4.34,12.26-4.3v8.64Z"/>
      <path class="cls-2" d="m134.99,103.25l-7.64-8.91c-.52-.6-1.3-.92-2.08-.84-.79.07-1.5.52-1.89,1.21l-3.93,6.78-3.82,6.75c-.39.69-.42,1.52-.09,2.24.33.72.99,1.23,1.77,1.37l23.1,4.31c.15.03.3.04.45.04h.03c1.35,0,2.44-1.1,2.44-2.45,0-.71-.3-1.35-.79-1.8l-7.55-8.7Zm-13.41,4.42l4.3-7.52,5.4,6.3,3.14,3.61-12.84-2.39Z"/>
      <path class="cls-2" d="m18.12,50.16l7.73,8.91c.47.54,1.14.84,1.85.84.08,0,.16,0,.25-.01.79-.08,1.49-.54,1.89-1.23l3.8-6.73,3.92-6.75c.4-.69.44-1.53.11-2.25-.33-.72-.99-1.24-1.78-1.38l-11.53-2.15-11.55-2.25c-1.02-.2-2.05.27-2.58,1.16-.53.9-.43,2.03.24,2.82l7.66,9.03Zm13.46-4.43l-4.3,7.52-5.44-6.27-3.13-3.69,12.87,2.44Z"/>
      <path class="cls-2" d="m111.75,117.42c-.15-.78-.66-1.44-1.37-1.77-.72-.33-1.55-.3-2.24.09l-6.78,3.83-6.75,3.92c-.69.4-1.14,1.1-1.21,1.89-.07.79.24,1.57.84,2.08l8.9,7.62,8.91,7.73c.46.4,1.03.6,1.61.6,0,0,.01,0,.02,0,1.35,0,2.45-1.1,2.45-2.45,0-.26-.04-.52-.12-.75l-4.25-22.8Zm-11.7,8.57l7.52-4.3,2.39,12.84-9.91-8.54Z"/>
      <path class="cls-2" d="m39.3,24.43l2.15,11.55c.15.78.66,1.44,1.38,1.78.33.15.67.22,1.02.22.42,0,.85-.11,1.23-.33l6.73-3.9,6.75-3.82c.69-.39,1.15-1.09,1.23-1.89.08-.79-.23-1.57-.83-2.09l-8.93-7.75-9.01-7.64c-.79-.67-1.92-.77-2.82-.24-.9.53-1.36,1.56-1.17,2.58l2.25,11.53Zm7.56-2.52l6.29,5.46-7.52,4.3-1.52-8.17-.92-4.71,3.67,3.11Z"/>
    </g>
  </g>
</svg>