<?xml version="1.0" encoding="UTF-8"?>
<svg id="Layer_2" data-name="Layer 2" xmlns="http://www.w3.org/2000/svg" viewBox="0 0 140.41 136.72">
  <defs>
    <style>
      .cls-1 {
        fill: #e89830;
        fill-rule: evenodd;
      }

      .cls-2 {
        fill: #141515;
      }
    </style>
  </defs>
  <g id="Icons">
    <g>
      <path class="cls-1" d="m86.08,118.71c29.96,0,54.33-24.38,54.33-54.33S116.04,10.14,86.08,10.14s-54.33,24.38-54.33,54.23,24.47,54.33,54.33,54.33h0Z"/>
      <g>
        <path class="cls-2" d="m118.35,75.34c-.98-.98-2.45-1.66-3.92-1.66h-4.89l.1-15.08c0-2.94-1.17-5.48-3.03-7.44-1.37-1.37-3.13-2.35-4.99-2.74l4.31-3.52c1.08-.88,1.17-2.35.39-3.43L75.87,3.49c-.88-.98-2.45-1.17-3.43-.29l-3.03,2.35-5.19-4.89c-.98-.88-2.55-.88-3.52.1L16.45,47.74h-5.68c-2.94,0-5.48,1.17-7.44,3.03-1.86,1.86-3.03,4.5-3.03,7.34l-.29,67.74c0,2.84,1.17,5.48,3.03,7.34,1.86,1.96,4.5,3.13,7.34,3.13l88.49.39c2.84,0,5.48-1.17,7.34-3.03,1.96-1.86,3.13-4.5,3.13-7.34v-15.17h4.89c1.57,0,2.94-.59,3.92-1.57,1.08-.98,1.66-2.35,1.66-3.92l.1-26.43c0-1.57-.59-2.94-1.57-3.92Zm-17.42-32.7l-6.75,5.38h-4.41l8.42-8.91,2.74,3.52Zm-27.31-34.17l3.33,4.21-4.01-3.72.69-.49Zm-10.96-2.55l31.82,29.96-11.45,12.14-18.6-.1h-3.92l-37.3-.2L62.65,5.94Zm41.8,120.31c0,1.57-.69,2.94-1.66,3.92-.98,1.08-2.35,1.66-3.92,1.66l-88.49-.39c-1.57,0-2.94-.59-3.92-1.66-.98-.98-1.57-2.35-1.57-3.92l.2-67.74c.1-1.47.69-2.94,1.66-3.92,1.08-.98,2.45-1.57,3.92-1.57l49.83.2,23.49.1h15.17c1.57,0,2.94.69,3.92,1.66.98,1.08,1.66,2.45,1.66,3.92l-.1,15.17-32.79-.2c-1.57,0-2.94.69-4.01,1.66-.98.98-1.57,2.35-1.57,3.92l-.1,26.43c0,1.47.59,2.94,1.57,3.92.98.98,2.35,1.57,3.92,1.66l32.89.1-.1,15.08Zm10.47-20.56c0,.2-.1.29-.2.49-.1.1-.29.2-.49.2l-42.58-.2c-.2,0-.29-.1-.49-.2-.1-.2-.2-.29-.2-.49l.2-26.43c0-.2,0-.29.2-.49.1-.1.29-.2.39-.2l42.68.2c.1,0,.29.1.39.2.2.1.2.29.2.49l-.1,26.43Z"/>
        <path class="cls-2" d="m84.09,82.88c-2.64,0-4.99.98-6.75,2.74-1.66,1.66-2.74,4.01-2.74,6.66s.98,4.99,2.74,6.75c1.66,1.66,4.01,2.74,6.66,2.74s4.99-.98,6.75-2.74c1.66-1.66,2.74-4.01,2.74-6.66s-.98-4.99-2.74-6.75c-1.66-1.66-4.01-2.74-6.66-2.74Zm3.23,12.73c-.88.78-2.06,1.37-3.33,1.37-1.27-.1-2.35-.59-3.23-1.37-.78-.88-1.37-2.06-1.37-3.33.1-1.27.59-2.35,1.37-3.23.88-.78,2.06-1.37,3.33-1.27,1.27,0,2.35.49,3.23,1.27.78.88,1.37,2.06,1.37,3.33-.1,1.27-.59,2.35-1.37,3.23Z"/>
      </g>
    </g>
  </g>
</svg>